<?xml version="1.0" encoding="UTF-8" standalone="no"?>
<!-- 
@Description: Gato GNU
@Author:      Fitorec
-->

<svg
   xmlns:dc="http://purl.org/dc/elements/1.1/"
   xmlns:cc="http://creativecommons.org/ns#"
   xmlns:rdf="http://www.w3.org/1999/02/22-rdf-syntax-ns#"
   xmlns:svg="http://www.w3.org/2000/svg"
   xmlns="http://www.w3.org/2000/svg"
   version="1.1"
   width="400"
   height="400"
   id="svg2">
  <defs
     id="defs4" />
  <metadata
     id="metadata7">
    <rdf:RDF>
      <cc:Work
         rdf:about="">
        <dc:format>image/svg+xml</dc:format>
        <dc:type
           rdf:resource="http://purl.org/dc/dcmitype/StillImage" />
        <dc:title></dc:title>
      </cc:Work>
    </rdf:RDF>
  </metadata>
  <path
     d="m 227.25061,353.3535 c -0.87734,-4.6767 -2.32646,-5.1136 -3.10985,-0.9378 -0.87453,4.6616 -1.94074,4.4523 -3.67863,-0.7222 -1.00188,-2.9831 -1.16101,-5.2552 -0.53381,-7.622 0.49147,-1.85446 0.65562,-3.99196 0.36478,-4.74996 -0.83039,-2.1639 -5.14878,-1.6182 -9.25722,1.1698 -2.6494,1.798 -4.79637,2.4602 -7.29441,2.25 -3.77322,-0.3174 -4.21257,-1.4386 -2.6638,-6.7978 0.62266,-2.1546 0.25449,-1.9674 -2.66451,1.3546 l -3.38701,3.8546 -5.78189,-1.2003 c -3.18004,-0.6602 -8.54752,-1.2905 -11.92773,-1.4006 -7.22411,-0.2354 -8.61501,-0.8987 -8.61501,-4.1083 0,-3.6291 -1.67339,-3.8757 -2.87667,-0.424 -1.02832,2.9499 -1.16206,3.0103 -3.31991,1.4989 -2.48173,-1.7383 -6.87433,-2.0849 -8.35342,-0.6592 -1.26836,1.2226 -6.63522,1.7059 -8.2006,0.7384 -0.68717,-0.4247 -1.28277,-2.4331 -1.32356,-4.4631 l -0.0742,-3.691 -1.68904,3.8201 c -1.72656,3.905 -3.16263,4.012 -3.16263,0.2357 0,-3.5641 -2.43355,-5.8943 -12.09726,-11.5835 -10.96103,-6.453 -25.09235,-19.4543 -34.11851,-31.39025 -13.98905,-18.49877 -25.784232,-51.4435 -25.784232,-72.01712 0,-5.18755 -0.68081,-6.81939 -5.45385,-13.07242 -4.15374,-5.44169 -5.95724,-12.25212 -4.58957,-17.33126 1.20265,-4.46629 6.27565,-9.96503 9.92598,-10.75899 1.439592,-0.31312 3.081392,-0.70478 3.648432,-0.87036 0.56705,-0.16558 1.85859,-2.94049 2.87008,-6.16647 5.47166,-17.45082 17.63583,-37.2361 30.94189,-50.32762 16.05653,-15.79764 31.25554,-25.05044 52.73448,-32.10349 17.9079,-5.88043 27.52785,-7.29691 40.16182,-5.91358 25.2072,2.76 43.35725,8.59492 63.15992,20.30477 l 6.89919,4.07968 2.85081,-3.41482 c 1.56795,-1.87815 2.85082,-3.74237 2.85082,-4.14271 0,-2.08041 22.19543,-18.23309 30.59588,-22.2661 5.09376,-2.44548 9.71887,-5.30116 10.27803,-6.34595 1.23155,-2.30119 8.0084,-5.82684 14.07607,-7.32307 2.98725,-0.73663 5.61688,-2.34383 8,-4.88952 3.16286,-3.37862 6.88787,-6.02302 8.48428,-6.02302 2.23862,0 -1.21484,19.46568 -4.37553,24.66303 -2.42981,3.99551 -8.63388,6.1767 -21.03875,7.3967 -11.05875,1.0876 -16.81557,2.81514 -22.95115,6.8873 -4.41555,2.93059 -19.06883,16.79849 -19.06883,18.04678 0,0.36114 2.07699,3.32276 4.61552,6.5814 13.37866,17.17372 28.36834,43.29322 33.30963,58.04199 7.9109,23.61246 7.91179,53.29227 0.002,80.84059 -1.80102,6.27295 -8.51934,20.20933 -14.72349,30.54221 -9.58755,15.9678 -27.54651,31.9931 -47.7453,42.6044 -11.98819,6.2981 -12.45836,6.7638 -12.45836,12.3391 0,2.6593 -0.85217,6.30506 -2,8.55646 -1.1,2.1576 -2,4.9527 -2,6.2114 0,1.2587 -0.3375,2.2993 -0.75,2.3125 -0.4125,0.013 -2.39798,0.4068 -4.41218,0.8748 -3.58655,0.8335 -3.67512,0.7821 -4.28873,-2.4887 z m -33.37783,-16.06496 c 1.00581,-0.9102 1.82874,-2.2665 1.82874,-3.014 0,-0.7475 1.0125,-2.9226 2.25,-4.8335 1.63733,-2.5284 3.20304,-3.6376 5.75,-4.0733 9.20982,-1.5757 9.35433,-1.9007 9.82518,-22.0934 0.35346,-15.1586 0.21789,-16.66087 -2.16883,-24.0337 -1.40023,-4.32543 -3.8481,-10.77427 -5.43972,-14.33076 -2.59432,-5.79703 -8.07752,-22.95859 -9.66734,-30.25724 -0.89163,-4.09337 -2.54929,-2.28418 -2.54929,2.78234 0,2.40537 -1.35,9.60922 -3,16.00856 -1.65,6.39934 -3,13.87058 -3,16.60276 0,2.73219 -0.66195,5.97786 -1.47099,7.21262 -0.84047,1.28272 -2.20927,8.4473 -3.19337,16.71482 -1.93693,16.2723 -2.00697,19.5722 -0.55024,25.9267 1.30337,5.6855 0.51368,11.5362 -1.34849,9.9907 -0.97027,-0.8052 -1.56718,-0.5727 -2.36717,0.9221 -1.88925,3.5301 -1.23944,5.0035 2.68026,6.0775 3.2572,0.8924 4.76707,1.1917 9.67126,1.9166 0.50669,0.075 1.74419,-0.6085 2.75,-1.5188 z m 35.31528,-2.5068 c 6.21668,-2.0868 6.58011,-3.7154 4.98498,-22.3382 -0.75376,-8.8 -1.99135,-18.025 -2.75019,-20.5 -1.99091,-6.49343 -6.84735,-17 -7.85789,-17 -1.46499,0 -0.95787,5.30042 1.05575,11.03466 2.14729,6.11491 2.01975,7.45382 -2.3532,24.70504 -1.4113,5.5675 -2.56599,12.0055 -2.56599,14.3066 0,3.5058 -0.56834,4.7045 -3.50643,7.3957 -1.92854,1.7665 -3.16604,3.562 -2.75,3.9901 1.02219,1.0517 10.81546,0.06 15.74297,-1.5939 z m -68.6664,-4.671 c 0.42398,-2.882 -2.46017,-3.9636 -4.64768,-1.7428 -1.56412,1.5878 -1.54553,1.7919 0.2871,3.1502 2.48321,1.8405 3.95254,1.3662 4.36058,-1.4074 z m 93.17986,-6.7773 c 15.64009,-8.1362 34.8075,-25.7762 45.51707,-41.8899 8.75438,-13.17192 15.24506,-29.33543 17.86958,-44.5 2.37171,-13.70378 2.76002,-21.84059 1.61948,-33.93503 -1.80767,-19.16865 -5.24506,-33.1669 -10.94333,-44.56497 -10.5613,-21.12544 -26.54729,-43.50117 -30.21082,-42.28634 -1.03735,0.34399 -1.50783,4.73477 -2.02166,18.86733 -0.74614,20.52231 -3.10353,32.45407 -8.78983,44.48915 -1.67227,3.53936 -3.04049,6.69578 -3.04049,7.01426 0,0.31849 -1.575,3.2664 -3.5,6.55091 -2.12367,3.6235 -3.5,7.29523 -3.5,9.33723 0,1.85096 -0.74567,4.66464 -1.65705,6.25262 -2.03456,3.54502 -1.33132,6.94678 2.33747,11.30689 2.36202,2.8071 2.48817,3.2941 1.06025,4.0932 -3.22613,1.80544 -7.80225,9.89072 -7.56785,13.37121 0.12301,1.82649 -0.25231,3.92449 -0.83405,4.66222 -0.58174,0.73772 -1.84867,3.45679 -2.8154,6.04236 -0.96673,2.58557 -2.60497,5.46782 -3.64053,6.40499 -2.18429,1.97675 -2.36294,3.65234 -0.67723,6.3516 0.98424,1.57601 0.89243,2.27656 -0.5,3.81517 -2.14432,2.36945 -2.18591,5.60404 -0.0989,7.69105 1.33181,1.33181 1.40579,2.09176 0.43239,4.44175 -0.94334,2.27742 -0.87602,3.54894 0.34227,6.46472 0.83412,1.99632 1.97371,3.62968 2.53242,3.62968 2.885,0 2.92488,3.92931 0.16836,16.5859 -3.26792,15.0047 -4.38575,22.7772 -3.41537,23.7475 0.96232,0.9624 3.80238,-0.026 11.33322,-3.9435 z m -110.00836,-2.3787 c 1.9204,-1.6413 5.62892,-3.7527 8.24115,-4.692 4.15654,-1.4947 4.83098,-2.1422 5.40207,-5.1864 0.90671,-4.8331 -0.24771,-22.80732 -2.60968,-40.6328 -1.09318,-8.25 -1.99605,-18.27917 -2.00638,-22.28704 l -0.0188,-7.28703 -6.00412,-5.93 c -3.57476,-3.53063 -6.57233,-5.71196 -7.40844,-5.39111 -1.7626,0.67637 -3.10322,4.04257 -5.04418,12.66564 -2.74656,12.20203 -7.59786,16.43276 -16.33416,14.24468 -2.6208,-0.6564 -2.03631,-2.51514 0.7909,-2.51514 3.23289,0 3.4038,-2.13323 0.36167,-4.51406 -1.59777,-1.25044 -3.5333,-3.87474 -4.30119,-5.83179 -1.28542,-3.27607 -1.75957,-3.58191 -5.97831,-3.85621 -2.52019,-0.16387 -4.58054,-0.74794 -4.57854,-1.29794 0.005,-1.32673 5.9325,-4.23639 11.32201,-5.5575 4.66005,-1.1423 6.2412,-3.44241 7.69399,-11.1925 0.62676,-3.34352 0.4805,-3.75 -1.34932,-3.75 -2.34213,0 -3.70477,1.55165 -2.18662,2.48992 1.66879,1.03137 1.15528,5.06369 -0.99259,7.79427 -1.34651,1.71181 -3.6859,2.91355 -7.09496,3.64466 -2.79733,0.59992 -6.04346,1.76135 -7.21361,2.58096 -3.08274,2.15924 -3.67996,1.87551 -3.70417,-1.75981 -0.0177,-2.65553 -0.60013,-3.52437 -3.18427,-4.75 -4.91262,-2.33001 -5.64872,-4.35278 -2.92475,-8.03713 1.26872,-1.71605 2.07029,-3.35658 1.78125,-3.64562 -0.28905,-0.28904 -3.04357,0.70643 -6.12118,2.21216 -3.0776,1.50573 -5.76884,2.56449 -5.98054,2.3528 -0.21169,-0.2117 0.25321,-2.84486 1.03312,-5.85148 1.57567,-6.07437 1.90661,-15.99488 0.41801,-12.53073 -0.47268,1.1 -0.89106,3.47662 -0.92971,5.28138 -0.083,3.87511 -1.04851,4.37608 -8.81289,4.57277 l -5.7574,0.14585 0.26394,7 c 0.82668,21.92415 11.29619,49.62869 25.6375,67.84222 12.48911,15.86118 36.22816,36.50898 42.09856,36.61648 1.1,0.02 3.57124,-1.3062 5.49164,-2.9475 z m 26.06234,-1.5601 c 1.42738,-1.2917 1.55193,-2.2462 0.75031,-5.75 -0.69299,-3.029 -0.5306,-6.9911 0.58207,-14.2011 1.77684,-11.51376 4.15652,-42.62282 3.82474,-50 -0.31486,-7.00098 -1.99868,-11.68755 -4.05677,-11.29124 -3.76282,0.72457 -4.40293,6.74899 -4.83888,45.54124 -0.43796,38.9708 -0.38917,39.4367 3.73853,35.7011 z M 114.59451,212.88627 c 2.67351,1.43082 2.72792,2.4529 0.0939,1.7641 -1.33862,-0.35006 -2.3613,0.12422 -3.05242,1.41558 -0.94269,1.76143 -0.77875,1.87967 1.76309,1.27154 3.85972,-0.92342 4.30242,-1.25814 4.30242,-3.25297 0,-2.22311 -1.90958,-4.14098 -4.12308,-4.14098 -1.90911,0 -7.87692,5.51033 -7.87692,7.27309 0,0.61558 1.52685,-0.36063 3.39299,-2.16938 2.91277,-2.82315 3.69122,-3.12901 5.5,-2.16098 z M 98.36965,202.52108 c -0.33295,-0.86765 -1.08361,-1.57754 -1.66813,-1.57754 -1.462,0 -2.35006,2.64538 -1.57024,4.67754 0.59009,1.53775 0.77706,1.54421 2.24373,0.0775 0.88,-0.88 1.32759,-2.30989 0.99464,-3.17754 z m 56.08187,2.43342 c 2.98278,-1.81864 4.33713,-4.01096 2.47784,-4.01096 -0.42468,0 -2.46004,-1.3913 -4.52301,-3.09177 l -3.75086,-3.09178 2.98009,-3.39413 c 3.20916,-3.65503 6.06594,-11.72501 6.06594,-17.13537 0,-1.84252 -0.91893,-6.07784 -2.04206,-9.41181 l -2.04207,-6.06177 5.54207,-8.55544 c 3.04813,-4.70549 5.54228,-9.051 5.54255,-9.65668 5.2e-4,-1.16933 5.2838,-5.92446 17.19824,-15.47897 4.0157,-3.22031 8.62296,-7.26521 10.23836,-8.98869 3.54843,-3.78582 4.16275,-3.86408 4.97355,-0.63359 0.7394,2.946 3.46346,3.28383 7.12639,0.88378 1.45305,-0.95208 3.56908,-1.40549 5.14941,-1.10339 1.47551,0.28206 4.58935,-0.061 6.91965,-0.76228 4.58595,-1.38017 6.39391,-0.62265 6.39391,2.67901 0,2.883 6.47363,9.24368 12.88662,12.66176 6.86202,3.65742 8.11338,6.05586 8.11338,15.55061 0,4.73182 0.75615,7.85045 3.35034,13.81798 1.84268,4.23882 3.92278,8.3967 4.62244,9.23974 3.61256,4.35286 11.0588,-0.957 12.96032,-9.24191 0.59649,-2.59892 1.60365,-14.94114 2.23812,-27.42716 0.93589,-18.4178 0.90951,-22.99594 -0.13979,-24.26027 -2.61954,-3.15635 -14.77879,-10.45115 -23.27815,-13.96545 -4.8107,-1.98911 -14.0357,-5.11451 -20.5,-6.94532 -10.36148,-2.93457 -13.35192,-3.35345 -25.25328,-3.53728 -14.00191,-0.21627 -25.38138,1.04628 -32.41523,3.59646 -2.24662,0.81453 -6.10977,2.07086 -8.58477,2.79184 -17.6145,5.13117 -35.89189,17.16299 -51.95456,34.20115 -9.15356,9.70947 -20.60866,25.75366 -24.07049,33.7135 -2.43072,5.58899 -5.38888,16.52663 -4.66542,17.2501 0.32361,0.3236 2.03432,0.0843 3.80158,-0.53176 4.14367,-1.44449 4.72617,-0.79888 1.39001,1.54062 -9.75163,6.83837 -11.03672,8.07712 -11.88139,11.45284 -1.16883,4.67129 2.10316,12.45938 5.8298,13.87624 4.99672,1.89975 8.21331,-1.13553 10.04714,-9.48081 1.59484,-7.25768 7.4085,-12.5 13.86233,-12.5 1.35368,0 4.55973,-1.7655 7.26379,-4 5.91481,-4.88772 10.0098,-5.18547 18.87721,-1.37261 14.21401,6.11182 14.42446,6.1564 16.57777,3.51183 2.41335,-2.96396 2.43156,-5.72072 0.0669,-10.1299 -2.16532,-4.03747 -8.94983,-8.00932 -13.68111,-8.00932 -1.77203,0 -5.74566,1.15543 -8.83029,2.56762 -3.08464,1.41219 -6.75525,2.42469 -8.15692,2.25 -2.3016,-0.28685 -1.89108,-0.79319 4.23759,-5.22678 12.86883,-9.30953 17.67886,-10.3542 25.91749,-5.62895 6.79865,3.89936 12.07979,10.23694 13.98139,16.77822 1.45183,4.9941 1.42062,5.64939 -0.55119,11.5747 -2.93244,8.81197 -4.62684,10.976 -8.18513,10.45376 -1.58208,-0.2322 -2.8765,-0.20892 -2.8765,0.0517 0,0.26067 2.5875,2.84119 5.75,5.73451 l 5.75,5.26058 -3,1.16985 c -2.80705,1.09461 -11.34218,0.69354 -15.40677,-0.72397 -1.20425,-0.41998 -1.32141,-0.26009 -0.47988,0.65489 1.0115,1.09979 7.87207,2.67694 12.88665,2.96247 1.1,0.0626 3.4625,-0.77782 5.25,-1.86768 z m -36.20454,-4.46551 c 1.35,-1.35 2.45454,-3.11785 2.45454,-3.92857 0,-3.82413 -7.10437,-6.39322 -8.39301,-3.03509 -0.33384,0.86998 -0.60699,3.34498 -0.60699,5.5 0,3.28057 0.33288,3.91821 2.04546,3.91821 1.125,0 3.15,-1.10455 4.5,-2.45455 z"
     id="gnu_cat"
     style="fill:#000000">
    <title
       id="title2998">Gato GNU</title>
  </path>
</svg>
